<?xml version="1.0" encoding="utf-8"?>
<!-- Generator: Adobe Illustrator 22.1.0, SVG Export Plug-In . SVG Version: 6.00 Build 0)  -->
<svg version="1.1" id="Layer_1" xmlns="http://www.w3.org/2000/svg" xmlns:xlink="http://www.w3.org/1999/xlink" x="0px" y="0px"
	 viewBox="0 0 1280 1280" style="enable-background:new 0 0 1280 1280;" xml:space="preserve">
<style type="text/css">
	.st0{fill:#F7931E;}
</style>
<path class="st0" d="M328.4,2.4c-11.7,4.3-17.6,9.5-22.3,19.6l-2.6,5.5l-0.3,51.7l-0.3,51.8l-2.7,0.6c-40.6,9-68.9,22.4-97.3,46.2
	c-33.6,28.2-58.8,68.7-68.4,110.2c-1.4,6.3-3,12.2-3.4,13c-0.7,1.3-7.9,1.6-52.2,2l-51.4,0.5l-5.6,2.6C11.4,311,5.4,318.4,1.4,331.3
	c-1.7,5.6-1.7,6.1,0,12.5c3.2,12.1,9.6,20.4,19.6,25.1l5.5,2.6L77,372l50.5,0.5V388v15.5L77,404c-49.2,0.5-50.6,0.6-55.2,2.7
	c-10.2,4.7-17.7,14.5-20.9,27.1c-1.2,4.9-1.1,5.8,1.5,13.7c3.3,10.3,9.3,17.5,18.3,22l5.8,3L77,473l50.5,0.5l0.3,15.2
	c0.1,8.4,0.1,15.4,0,15.5c-0.2,0.1-23,0.5-50.8,0.8l-50.5,0.5l-5.6,2.6c-9.7,4.6-16.4,13.1-19.5,25.1c-1.7,6.4-1.7,6.9,0,12.5
	c4,12.9,10,20.3,20.5,25.2l5.6,2.6l50,0.5l50,0.5l0.3,15.2l0.3,15.2l-49.8,0.3c-48.2,0.3-50,0.4-55,2.5
	c-10.9,4.4-17.5,11.9-21.5,24.5c-2.2,6.7-2.2,6.9-0.4,13.5c0.9,3.7,2.6,8.4,3.7,10.6c2.8,5.4,9.4,11.8,15.4,14.7l5,2.5l51,0.5
	c28.1,0.3,51.1,0.7,51.3,0.8c0.1,0.1,0.1,7.1,0,15.4l-0.3,15.3l-50,0.5l-50,0.5l-6.7,3.3c-9.5,4.6-15,11.2-18.5,22l-2.7,8.2l1.8,6.8
	c3.1,12,9.4,20,19.6,25l5.5,2.7L77,775l50.5,0.5V791v15.5L77,807c-49.2,0.5-50.6,0.6-55.2,2.7c-10.2,4.7-17.7,14.5-20.8,27
	c-1.2,4.6-1.1,5.9,0.5,11.5c1,3.5,2.8,8.1,4.1,10.4c3,5.3,10.3,12,16.2,14.7c4.6,2.2,5.8,2.2,55.2,2.7l50.5,0.5l0.3,15.2
	c0.2,15.1,0.2,15.3-2,15.8c-1.3,0.3-24.3,0.6-51.3,0.8l-49,0.2l-5.3,2.8c-10.1,5.3-15.5,12.5-18.8,25c-1.7,6.3-1.7,6.8,0,12.4
	c4,12.9,10,20.3,20.5,25.2l5.6,2.6l51.7,0.3l51.8,0.3l0.6,2.7c0.3,1.5,1.7,7.2,3,12.6c12.5,51,43.8,95.2,88.2,124.6
	c23.1,15.3,45,24.2,77.5,31.4l2.7,0.6v47.8c0,30.1,0.4,50,1.1,53.8c2.6,14.2,11.1,22.9,27.2,28c5.6,1.7,6.1,1.7,12.4,0
	c12.5-3.3,19.7-8.7,25-18.8l2.8-5.3l0.2-49c0.2-27,0.5-50,0.8-51.3c0.5-2.2,0.7-2.2,15.8-2l15.2,0.3l0.5,50
	c0.4,34.3,0.9,51,1.7,53.3c4.1,11.5,13.9,19.6,28,23.2c4.6,1.2,5.9,1.1,11.5-0.5c3.5-1,8.1-2.8,10.4-4.1c5.3-3,12-10.3,14.7-16.2
	c2.2-4.6,2.2-5.8,2.7-55.2l0.5-50.5H489h15.5l0.5,50.5c0.5,49.1,0.6,50.6,2.7,55.2c2.6,5.7,9.3,13.2,14.7,16.3
	c2.3,1.3,7.1,3.2,10.8,4.1c6.4,1.7,6.9,1.7,12.5,0c13.2-4.2,20.2-9.7,25-20.1l2.8-6l0.5-50l0.5-50l15.1-0.3c15-0.2,15.2-0.2,15.8,2
	c0.3,1.3,0.6,23.7,0.6,49.8c0.1,42.2,0.3,48,1.8,52.2c4,11,12,18.2,24.6,21.9c6.9,2.1,7.3,2.1,13.6,0.4
	c13.2-3.4,21.8-10.4,26.2-21.4c2.3-5.5,2.3-6.2,2.6-55.4l0.3-49.8l15.2,0.3l15.2,0.3l0.5,50l0.5,50l2.6,5.6
	c4.9,10.5,12.3,16.5,25.2,20.5c5.6,1.7,6.1,1.7,12.4,0c3.7-0.9,8.3-2.6,10.3-3.6c5.4-2.8,12-9.8,14.9-16l2.6-5.5l0.5-50.5l0.5-50.5
	H791h15.5l0.5,50c0.6,57,0.4,55.4,9.2,65c5.2,5.7,11.6,9.3,20.4,11.5c9.3,2.3,22-2.5,30.3-11.5c2.4-2.6,5.3-6.8,6.4-9.3
	c2.1-4.6,2.2-6.1,2.7-55.2l0.5-50.5H892h15.5l0.5,50.5c0.5,50.4,0.5,50.5,2.9,55.7c2.7,6.2,11.3,14.6,17.3,17.2
	c2.4,1.1,6.7,2.5,9.5,3.2c4.6,1.1,6,1.1,11-0.5c12.9-4,20.3-10,25.2-20.5l2.6-5.6l0.3-51.2c0.2-38.5,0.6-51.4,1.5-52.1
	c0.7-0.5,5-1.7,9.7-2.7c62-13.1,118.7-59.3,145-118.3c6.9-15.5,10.6-27,15.4-48.4l0.6-2.8h47.8c30.1,0,50-0.4,53.8-1.1
	c14.2-2.6,22.9-11.1,28-27.2c1.7-5.6,1.7-6.1,0-12.4c-3.3-12.5-8.7-19.7-18.8-25l-5.3-2.8l-49-0.2c-26.9-0.2-50-0.5-51.3-0.8
	c-2.2-0.5-2.2-0.7-2-15.8l0.3-15.2l50-0.5c57-0.6,55.3-0.4,65-9.2c5.7-5.2,9.3-11.6,11.5-20.5c1.2-4.6,1.1-5.9-0.5-11.5
	c-1-3.5-2.8-8.1-4.1-10.4c-3-5.3-10.3-12-16.2-14.7c-4.6-2.2-5.8-2.2-55.2-2.7l-50.5-0.5V791v-15.5l50.5-0.5
	c49.1-0.5,50.6-0.6,55.2-2.7c5.7-2.6,13.2-9.3,16.3-14.7c1.3-2.3,3.2-7.1,4.1-10.8c1.8-6.7,1.8-6.8-0.5-14
	c-4-12.3-9.3-18.7-19.6-23.5l-6-2.8l-50-0.5l-50-0.5l-0.3-15.1c-0.2-15-0.2-15.2,2-15.8c1.3-0.3,23.7-0.6,49.8-0.6
	c42.2-0.1,48-0.3,52.2-1.8c10.9-4,18-11.8,21.9-24.4c2.2-6.9,2.2-7.1,0.5-13.7c-3.6-13.4-10.5-21.9-21.5-26.3
	c-5.5-2.3-6.2-2.3-55.4-2.6l-49.8-0.3l0.3-15.2l0.3-15.2l50-0.5l50-0.5l5.6-2.6c10.5-4.9,16.5-12.3,20.5-25.2
	c1.7-5.6,1.7-6.1,0-12.4c-0.9-3.7-2.6-8.3-3.6-10.3c-2.8-5.4-9.8-12-16-14.9l-5.5-2.6l-48.5-0.2c-26.7-0.2-49.5-0.5-50.8-0.8
	c-2.2-0.5-2.2-0.7-2-15.8l0.3-15.2l50-0.5c57-0.6,55.4-0.4,65-9.2c5.7-5.2,9.3-11.6,11.5-20.4c2.3-9.3-2.5-22-11.5-30.3
	c-2.6-2.4-6.8-5.3-9.3-6.4c-4.6-2.1-6.1-2.2-55.2-2.7l-50.5-0.5V388v-15.5l50.5-0.5c50.4-0.5,50.5-0.5,55.7-2.9
	c6.2-2.7,14.6-11.3,17.2-17.3c1.1-2.4,2.5-6.7,3.2-9.5c1.1-4.6,1.1-6-0.5-11c-4-12.9-10-20.3-20.5-25.2l-5.6-2.6l-51.4-0.5
	c-44.3-0.4-51.5-0.7-52.2-2c-0.4-0.8-2-6.7-3.4-13c-6.9-29.7-22.3-60-43.4-85.1c-28.4-34-69.5-59.2-112.1-69
	c-4.7-1-9.5-2.1-10.7-2.4l-2.2-0.5l-0.3-51.8l-0.3-51.7l-2.6-5.6C969,11.4,961.6,5.4,948.7,1.4c-5.6-1.7-6.1-1.7-12.4,0
	C932.6,2.3,928,4,926,5c-5.4,2.8-12,9.8-14.9,16l-2.6,5.5L908,77l-0.5,50.5H892h-15.5L876,77c-0.5-49.2-0.6-50.6-2.7-55.2
	c-4.7-10.2-14.5-17.7-27.1-20.9c-4.9-1.2-5.8-1.1-13.7,1.5c-10.3,3.3-17.9,9.6-22.2,18.4l-2.8,5.7L807,77l-0.5,50.5H791h-15.5
	L775,77c-0.5-50.4-0.5-50.5-2.9-55.7c-2.7-6.2-11.3-14.6-17.3-17.2c-2.4-1.1-6.7-2.5-9.5-3.2c-4.6-1.1-6-1.1-11,0.5
	c-12.9,4-20.3,10-25.2,20.5l-2.6,5.6l-0.5,50l-0.5,50l-15.2,0.3l-15.2,0.3l-0.3-49.8c-0.3-48.2-0.4-50-2.5-55
	c-4.4-10.9-11.9-17.5-24.6-21.5c-6.8-2.1-7.1-2.1-13.5-0.4c-8.7,2.3-13.5,4.9-18.6,9.9c-5.3,5.4-8.5,11.9-9.7,19.9
	c-0.5,3.5-0.9,26.7-0.9,51.6v45.3l-15.2-0.3l-15.3-0.3l-0.5-50l-0.5-50l-2.6-5.6C566,11.4,558.6,5.4,545.7,1.4
	c-5.6-1.7-6.1-1.7-12.5,0c-12,3.1-20.3,9.6-25.1,19.6l-2.6,5.5L505,77l-0.5,50.5H489h-15.5L473,77c-0.5-49.2-0.6-50.6-2.7-55.2
	c-4.7-10.2-14.5-17.7-27-20.8c-4.6-1.2-5.9-1.1-11.5,0.5c-3.5,1-8.1,2.8-10.4,4.1c-5.3,3-12,10.3-14.7,16.2
	c-2.2,4.6-2.2,5.8-2.7,55.2l-0.5,50.5H388h-15.5L372,77c-0.5-45.8-0.7-50.9-2.3-54.5C365,12.1,357.3,5.4,345.9,2
	C337.9-0.5,336-0.4,328.4,2.4z"/>
</svg>
