<svg id="Layer_1" data-name="Layer 1" xmlns="http://www.w3.org/2000/svg" viewBox="0 0 48 24.8"><defs><style>.cls-1{fill:#f7931e;}.cls-2{fill:#fbb03b;}</style></defs><title>eye</title><path class="cls-1" d="M525,275v.15a1.85,1.85,0,0,0-.14.14,32.88,32.88,0,0,1-3.37,3.51,35.39,35.39,0,0,1-8.8,6,27.09,27.09,0,0,1-7.81,2.39c-.67.1-1.35.14-2,.22h-3a1.38,1.38,0,0,0-.2,0,23.56,23.56,0,0,1-3.24-.43,30.26,30.26,0,0,1-9.8-3.94,48.52,48.52,0,0,1-9.66-7.9V275c.95-1,1.93-1.95,3-2.86a42.38,42.38,0,0,1,10.95-7.08,28.87,28.87,0,0,1,8.09-2.28l1.64-.18h3l1.44.15a24.7,24.7,0,0,1,9.07,3,36.08,36.08,0,0,1,9.23,7.45C523.94,273.78,524.46,274.4,525,275Zm-24.24,10.27a11.87,11.87,0,0,0,4.32-.69A10.2,10.2,0,0,0,511.79,274a9.81,9.81,0,0,0-2.78-6,10.87,10.87,0,0,0-11.75-2.53,10.22,10.22,0,0,0-6.61,10.06,9.68,9.68,0,0,0,1.9,5.31A10.43,10.43,0,0,0,500.76,285.27Z" transform="translate(-477 -262.6)"/><path class="cls-2" d="M505.46,268.61a4.66,4.66,0,0,0-2,.46,3.85,3.85,0,0,0-2.12,3.85,3.91,3.91,0,0,0,3.17,3.36,4,4,0,0,0,3.58-1c.05-.05.1-.14.18-.1s0,.15,0,.22a6.81,6.81,0,0,1-5.34,5.41,7.17,7.17,0,0,1-7.88-3.35,6.7,6.7,0,0,1,2.35-9.09,7.15,7.15,0,0,1,7.77,0A.45.45,0,0,1,505.46,268.61Z" transform="translate(-477 -262.6)"/></svg>