<svg id="Layer_1" data-name="Layer 1" xmlns="http://www.w3.org/2000/svg" viewBox="0 0 1304.5 623.57"><defs><style>.cls-1,.cls-2,.cls-3,.cls-4,.cls-5,.cls-6,.cls-7{fill:none;}.cls-2,.cls-3,.cls-4,.cls-5,.cls-6,.cls-7{stroke:#ff931e;stroke-linejoin:round;}.cls-2,.cls-3{stroke-linecap:round;}.cls-2{stroke-width:20px;}.cls-3{stroke-width:16px;}.cls-4,.cls-5,.cls-6,.cls-7{stroke-linecap:square;stroke-width:8px;}.cls-5{stroke-dasharray:20.84 25;}.cls-6{stroke-dasharray:18.31 21.98;}.cls-7{stroke-dasharray:21.33 25.6;}</style></defs><title>logo</title><rect class="cls-1" y="58.07" width="473" height="413"/><line class="cls-2" x1="494.5" y1="13.57" x2="894.5" y2="613.57"/><line class="cls-2" x1="1294.5" y1="13.57" x2="894.5" y2="613.57"/><line class="cls-3" x1="891.5" y1="13.57" x2="741.5" y2="117.57"/><line class="cls-3" x1="741.5" y1="117.57" x2="891.5" y2="254.57"/><line class="cls-3" x1="891.5" y1="254.57" x2="760.5" y2="417.57"/><line class="cls-3" x1="1040.5" y1="13.57" x2="890.5" y2="117.57"/><line class="cls-3" x1="890.5" y1="117.57" x2="1040.5" y2="254.57"/><line class="cls-3" x1="1040.5" y1="254.57" x2="840" y2="504.07"/><line class="cls-4" x1="970.5" y1="5.57" x2="962.28" y2="11.26"/><line class="cls-5" x1="941.73" y1="25.51" x2="838.99" y2="96.75"/><line class="cls-4" x1="828.72" y1="103.87" x2="820.5" y2="109.57"/><line class="cls-4" x1="820.5" y1="109.57" x2="827.88" y2="116.31"/><line class="cls-6" x1="844.11" y1="131.13" x2="955" y2="232.41"/><line class="cls-4" x1="963.12" y1="239.82" x2="970.5" y2="246.57"/><line class="cls-4" x1="970.5" y1="246.57" x2="964.24" y2="254.36"/><line class="cls-7" x1="948.21" y1="274.32" x2="809.28" y2="447.29"/><line class="cls-4" x1="801.26" y1="457.27" x2="795" y2="465.07"/></svg>