<svg id="Layer_1" data-name="Layer 1" xmlns="http://www.w3.org/2000/svg" viewBox="0 0 671 720"><defs><style>.cls-1{fill:#f7931e;}</style></defs><title>muscle</title><path class="cls-1" d="M831,561v28c-.59,3.27-1.31,6.51-1.74,9.8-9.1,69.31-60.65,127.25-128.39,144.6-9.54,2.44-19.36,3.18-28.87,5.6H643c-3.77-.64-7.53-1.31-11.3-1.93q-83.36-13.76-125.83-86.8c-3.42-5.89-7.1-7.64-13.51-7.16-22.78,1.71-45.65,2.15-68.36-.34-74.88-8.21-143.91-33.12-206.49-75C193.22,561.47,170.15,543.37,160,514v-9a43,43,0,0,0,1.83-4.62c12.48-45.46,32.22-87.79,55.63-128.48,37-64.32,82.58-122.06,134.67-174.81,12.85-13,25.43-26.33,37.23-40.37,22.19-26.42,41.85-54.79,63.56-81.56C469,55.29,485.54,35.73,512,29h14c12,2.91,24,5.5,35.9,8.8,17.55,4.88,34.76,10.71,49.25,22.39,12.25,9.86,14.47,24.18,6.11,37.45-3.42,5.44-8.12,9.68-12.49,14.24-4.69,4.88-4.24,6.71,2.21,8.93,5.82,2,11.79,3.59,16.85,7.39,11.94,9,10.58,24.81-2.8,31.2a48,48,0,0,1-7.51,2.71c-10,2.86-20.28,3.78-30.54,5-17,2-34.19,3.22-50.39,9.67a38.67,38.67,0,0,1-11.72,2.36c-13.62,1-27.25,1.84-40.85,3s-25.67,4.87-34.76,16.7A236.8,236.8,0,0,0,413,256.64c-11,27.81-18.4,56.72-25.93,85.57C377.3,379.45,368.5,417,353.81,452.7c-.75,1.8-3,4.09-.58,5.79,2,1.44,4.49.22,6.51-1.13.83-.56,1.63-1.15,2.42-1.76A124.79,124.79,0,0,1,394,437.93c50.19-19.35,101.09-20.22,152.39-4.84,4.91,1.47,8.76,1.3,13.09-1.6C596,407.07,636,397.74,679.69,402.75c65.13,7.47,125.49,58.18,143.66,121.11C826.87,536.08,828.61,548.59,831,561Z" transform="translate(-160 -29)"/></svg>